Coordinates
version=1
nRows=22
nColumns=24
inDegrees=yes

Units are S.I. units (second, meters, Newtons, ...)
Angles are in degrees.

endheader
time	pelvis_tilt	pelvis_list	pelvis_rotation	pelvis_tx	pelvis_ty	pelvis_tz	hip_flexion_r	hip_adduction_r	hip_rotation_r	knee_angle_r	ankle_angle_r	subtalar_angle_r	mtp_angle_r	hip_flexion_l	hip_adduction_l	hip_rotation_l	knee_angle_l	ankle_angle_l	subtalar_angle_l	mtp_angle_l	lumbar_extension	lumbar_bending	lumbar_rotation
      1.15000000	     -1.14266127	      3.97961290	     -8.09265845	      0.01894986	      0.98985144	      0.30767661	    -15.06153599	     -3.11222366	      3.20953110	    -12.81940917	     13.55064290	     -2.53104873	     10.73040652	     22.92122931	      3.28199902	    -10.41011249	      1.00530771	      0.52169976	    -10.98062965	      8.55552542	     -2.15860577	     -4.11032810	     14.71198557
      1.15416667	     -1.12016362	      4.16045734	     -8.17885892	      0.02533319	      0.98956401	      0.30745655	    -15.06965063	     -3.39637519	      3.15263075	    -13.53098012	     13.38694704	     -2.35028964	     10.84022620	     22.92851411	      3.50390618	    -10.11302279	      0.42045924	      0.17925929	    -11.52374723	      8.59006870	     -2.08515297	     -4.34719244	     14.84274806
      1.15833333	     -1.08512685	      4.34905747	     -8.26184793	      0.03174870	      0.98933242	      0.30722900	    -15.07527296	     -3.68930905	      3.09117680	    -14.26815140	     13.18007967	     -2.17986647	     11.00014397	     22.91875774	      3.73885662	     -9.80194470	     -0.17251092	     -0.20591959	    -12.07752078	      8.63871488	     -2.02178864	     -4.59494948	     14.97613751
      1.16250000	     -1.05588666	      4.54396703	     -8.34479029	      0.03818825	      0.98912797	      0.30698845	    -15.05052829	     -3.98792912	      3.03464840	    -15.04700514	     12.93777609	     -2.02449489	     11.20022836	     22.91466605	      3.98026427	     -9.49945247	     -0.77502361	     -0.63012051	    -12.61484639	      8.69573609	     -1.94623504	     -4.84470201	     15.09881539
      1.16666667	     -1.00747606	      4.75011596	     -8.42237237	      0.04464906	      0.98897717	      0.30672696	    -15.02196376	     -4.30167939	      2.95723475	    -15.86851198	     12.66451721	     -1.85335897	     11.47049395	     22.88629709	      4.24061718	     -9.18912228	     -1.37578525	     -1.09151250	    -13.17567964	      8.76616035	     -1.89081668	     -5.11327910	     15.22033651
      1.17083333	     -0.96155261	      4.96179748	     -8.50682250	      0.05113201	      0.98886481	      0.30646549	    -14.96041366	     -4.62317792	      2.88392324	    -16.73872553	     12.34539503	     -1.70185145	     11.76271694	     22.85672839	      4.50266896	     -8.91984913	     -1.97510307	     -1.57592361	    -13.67091603	      8.83552421	     -1.81886135	     -5.38513879	     15.32477420
      1.17500000	     -0.91756913	      5.16811256	     -8.56100286	      0.05763817	      0.98878924	      0.30616630	    -14.89722217	     -4.92777985	      2.81267773	    -17.59857807	     11.87434550	     -1.69507822	     16.52016028	     22.83952575	      4.76856821	     -8.63980507	     -2.60463128	     -2.05865032	    -14.20328852	      9.91795348	     -1.74473468	     -5.65733582	     15.34579436
      1.17916667	     -0.85247266	      5.39501477	     -8.64736434	      0.06412744	      0.98876630	      0.30587404	    -14.78892309	     -5.27330022	      2.72105640	    -18.58147295	     11.51128679	     -1.49461682	     16.57570570	     22.79964590	      5.04291034	     -8.47753487	     -3.23007137	     -2.52758464	    -14.54094900	      9.92685734	     -1.70255506	     -5.94249369	     15.50318073
      1.18333333	     -0.80557328	      5.61743757	     -8.71485732	      0.07062886	      0.98876376	      0.30555159	    -14.64245012	     -5.60411294	      2.63889764	    -19.59513195	     11.07272943	     -1.34983033	     16.68152900	     22.77501638	      5.31769739	     -8.29124531	     -3.85325191	     -3.00396426	    -14.93808059	      9.93850465	     -1.62882067	     -6.22316627	     15.58051566
      1.18750000	     -0.75122648	      5.84055290	     -8.76730029	      0.07712789	      0.98880436	      0.30520160	    -14.48031457	     -5.93428644	      2.54383234	    -20.64554875	     10.58498355	     -1.19802223	     16.93417072	     22.74477549	      5.60103666	     -8.08515266	     -4.48896105	     -3.44034097	    -15.38915569	      9.96020288	     -1.56679753	     -6.50996208	     15.67113780
      1.19166667	     -0.68478707	      6.06929816	     -8.82566514	      0.08363882	      0.98891324	      0.30488650	    -14.31093541	     -6.26541239	      2.49978555	    -21.71815086	     10.00971783	     -1.14034916	     17.03770204	     22.71147063	      5.87257756	     -8.04625802	     -5.14670760	     -3.84928259	    -15.53965268	      9.96360513	     -1.51574620	     -6.81922207	     15.68451172
      1.19583333	     -0.64501049	      6.28490063	     -8.87032634	      0.09007165	      0.98898129	      0.30446903	    -14.03802937	     -6.59477971	      2.37290086	    -22.93250727	      9.52761530	     -0.90709241	     17.32610180	     22.70490714	      6.14294084	     -7.92131447	     -5.79797631	     -4.26808075	    -15.89730944	      9.97356026	     -1.44181445	     -7.06618097	     15.76009423
      1.20000000	     -0.55284241	      6.51341654	     -8.90391223	      0.09654220	      0.98917038	      0.30407333	    -13.82328581	     -6.93601971	      2.26899490	    -24.11874462	      8.83067727	     -0.88977429	     21.81500888	     22.62781962	      6.43468169	     -7.83610394	     -6.42605075	     -4.61111958	    -16.12926945	     10.08170746	     -1.42172169	     -7.36274935	     15.72677694
      1.20416667	     -0.48363033	      6.73432210	     -8.94292450	      0.10298751	      0.98937647	      0.30369997	    -13.54986739	     -7.25980015	      2.22306521	    -25.35976657	      8.14932820	     -0.79733851	     21.83518848	     22.58492282	      6.70067895	     -7.84179711	     -7.08418552	     -4.88937571	    -16.20856780	     10.07763245	     -1.38542728	     -7.65375553	     15.75166450
      1.20833333	     -0.41688518	      6.95160248	     -8.97118454	      0.10936172	      0.98956642	      0.30325101	    -13.21316343	     -7.59225980	      2.12165627	    -26.70942399	      7.52778569	     -0.62839748	     21.90072248	     22.54577615	      6.96992000	     -7.84269075	     -7.73800635	     -5.14539705	    -16.32402476	     10.06924770	     -1.33426336	     -7.90513062	     15.76971837
      1.21250000	     -0.34340617	      7.16563701	     -8.98637326	      0.11573168	      0.98981595	      0.30282196	    -12.87145212	     -7.91030181	      2.05494911	    -28.06799359	      6.81943780	     -0.53487518	     21.97563766	     22.49143967	      7.23751516	     -7.85090842	     -8.38683485	     -5.34310637	    -16.40015039	     10.05816951	     -1.30730874	     -8.17377088	     15.75370689
      1.21666667	     -0.21667290	      7.35035019	     -8.97273678	      0.12203307	      0.99016409	      0.30235091	    -12.58007058	     -8.19317592	      1.98858247	    -29.43266535	      6.05629946	     -0.53095664	     22.00578511	     22.38922209	      7.49271550	     -7.86363874	     -9.06718678	     -5.46492162	    -16.46609193	     10.05211260	     -1.36439150	     -8.41749793	     15.72502165
      1.22083333	     -0.17921099	      7.58152304	     -8.98884064	      0.12833104	      0.99039367	      0.30191606	    -12.11917547	     -8.52672049	      1.96184264	    -30.90478161	      5.33843919	     -0.37195668	     22.08313530	     22.35216555	      7.77088558	     -7.88933522	     -9.66977748	     -5.59761798	    -16.46845781	     10.03688849	     -1.29373197	     -8.72253163	     15.66717605
      1.22500000	     -0.11987638	      7.77656163	     -8.96967090	      0.13454220	      0.99065169	      0.30139911	    -11.65736578	     -8.82334135	      1.89082206	    -32.42321369	      4.65109688	     -0.26403492	     22.20272380	     22.30734866	      8.02522993	     -7.93882602	    -10.31476723	     -5.66845386	    -16.46534109	     10.00815704	     -1.26138558	     -8.94002664	     15.60599238
      1.22916667	     -0.05555071	      7.96764034	     -8.94760091	      0.14072048	      0.99095435	      0.30091310	    -11.18761549	     -9.10354574	      1.87479408	    -33.94350375	      3.91476460	     -0.21309926	     22.32938099	     22.24265647	      8.27732013	     -7.97808252	    -10.93913861	     -5.68433213	    -16.43591214	      9.96891188	     -1.24626163	     -9.19010489	     15.53235213
      1.23333333	      0.03284495	      8.15792835	     -8.91985216	      0.14685283	      0.99130171	      0.30041927	    -10.71841271	     -9.38558213	      1.85603915	    -35.49311937	      3.18335384	     -0.19384192	     22.41723931	     22.13128508	      8.53897507	     -8.00870742	    -11.51928551	     -5.67415508	    -16.40330132	      9.92929108	     -1.26288759	     -9.42638853	     15.44211908
      1.23750000	      0.13297591	      8.34369446	     -8.89035878	      0.15294822	      0.99169128	      0.29993572	    -10.24600220	     -9.65632676	      1.86984855	    -37.04790792	      2.44604834	     -0.21466024	     22.45070260	     21.98443983	      8.80481692	     -8.01026773	    -12.05782484	     -5.61638574	    -16.38712844	      9.90282894	     -1.30241844	     -9.66895252	     15.34961122
